#tb 0: 1/12
0,          0,          0,        1,   230400, 0xb1ee55dc
0,          1,          1,        1,   230400, 0x97c580bf
0,          2,          2,        1,   230400, 0xd4bd57e8
0,          3,          3,        1,   230400, 0x412b79aa
0,          4,          4,        1,   230400, 0x928a44d1
0,          5,          5,        1,   230400, 0x6bbdc0e4
0,          6,          6,        1,   230400, 0x382e960f
0,          7,          7,        1,   230400, 0x62c863ea
0,          8,          8,        1,   230400, 0xbfccd3ce
0,          9,          9,        1,   230400, 0x1987cdd4
0,         10,         10,        1,   230400, 0x40279727
0,         11,         11,        1,   230400, 0x9d4f6746
0,         12,         12,        1,   230400, 0x7b8a77ec
0,         13,         13,        1,   230400, 0x2ce7a781
0,         14,         14,        1,   230400, 0xb749815e
0,         15,         15,        1,   230400, 0x61c88610
0,         16,         16,        1,   230400, 0x8449114d
0,         17,         17,        1,   230400, 0x5f73e666
0,         18,         18,        1,   230400, 0xbde53ce6
0,         19,         19,        1,   230400, 0x8c7406fd
0,         20,         20,        1,   230400, 0xf9e9a3ef
0,         21,         21,        1,   230400, 0x7e0a3077
0,         22,         22,        1,   230400, 0xd9245c5f
0,         23,         23,        1,   230400, 0x6d077ea2
0,         24,         24,        1,   230400, 0xf622bb2a
0,         25,         25,        1,   230400, 0x35292dc8
0,         26,         26,        1,   230400, 0xc0cea946
0,         27,         27,        1,   230400, 0x98b27b60
0,         28,         28,        1,   230400, 0x668ef6bd
0,         29,         29,        1,   230400, 0x6c07a31c
0,         30,         30,        1,   230400, 0x0b4a6ae1
0,         31,         31,        1,   230400, 0x945b9878
0,         32,         32,        1,   230400, 0xab28031c
0,         33,         33,        1,   230400, 0x977252b0
0,         34,         34,        1,   230400, 0x6c3d9706
0,         35,         35,        1,   230400, 0xe053bc2a
0,         36,         36,        1,   230400, 0x4cf2fc7c
0,         37,         37,        1,   230400, 0x610beda7
